<svg xmlns="http://www.w3.org/2000/svg" width="14.096" height="17.013" viewBox="0 0 14.096 17.013">
  <g id="ic_location" transform="translate(22.99 6.424)">
    <path id="Path_592" data-name="Path 592" d="M-9.43-2.074a7.05,7.05,0,0,0-2.6-3.163,7.055,7.055,0,0,0-3.915-1.188,7.06,7.06,0,0,0-3.917,1.188,7.062,7.062,0,0,0-2.6,3.163A7.049,7.049,0,0,0-22.855,2a7.059,7.059,0,0,0,1.929,3.608l4.984,4.983,4.983-4.983A7.033,7.033,0,0,0-9.029,2,7.049,7.049,0,0,0-9.43-2.074Zm-1.9,3.614A4.7,4.7,0,0,1-12.62,3.945l-3.321,3.323-3.323-3.323A4.7,4.7,0,0,1-20.55,1.54a4.7,4.7,0,0,1,.268-2.715,4.709,4.709,0,0,1,1.73-2.109,4.7,4.7,0,0,1,2.611-.793,4.7,4.7,0,0,1,2.609.793A4.687,4.687,0,0,1-11.6-1.175,4.7,4.7,0,0,1-11.333,1.54Z" transform="translate(0)" fill="#808181" opacity="0.99"/>
    <circle id="Ellipse_51" data-name="Ellipse 51" cx="1.799" cy="1.799" r="1.799" transform="translate(-17.741 -1.516)" fill="#808181" opacity="0.99"/>
  </g>
</svg>
