<svg xmlns="http://www.w3.org/2000/svg" xmlns:xlink="http://www.w3.org/1999/xlink" width="38" height="38" viewBox="0 0 38 38">
  <defs>
    <linearGradient id="linear-gradient" x1="0.5" x2="0.5" y2="1" gradientUnits="objectBoundingBox">
      <stop offset="0" stop-color="#00a8c9"/>
      <stop offset="1" stop-color="#00759d"/>
    </linearGradient>
  </defs>
  <g id="Group_121" data-name="Group 121" transform="translate(-321 -756)">
    <circle id="Ellipse_5" data-name="Ellipse 5" cx="19" cy="19" r="19" transform="translate(321 756)" fill="url(#linear-gradient)"/>
    <path id="icons8-microphone" d="M15,2a3.609,3.609,0,0,0-3.6,3.6v6a3.6,3.6,0,1,0,7.2,0v-6A3.609,3.609,0,0,0,15,2ZM9.591,9.591A.6.6,0,0,0,9,10.2v1.4a6.01,6.01,0,0,0,5.4,5.97V19.4a.6.6,0,1,0,1.2,0v-1.83A6.01,6.01,0,0,0,21,11.6V10.2a.6.6,0,1,0-1.2,0v1.4a4.788,4.788,0,0,1-4.729,4.8.565.565,0,0,0-.146,0A4.788,4.788,0,0,1,10.2,11.6V10.2a.6.6,0,0,0-.609-.609Z" transform="translate(325 764)" fill="#fff"/>
  </g>
</svg>
